<svg width="56" height="56" viewBox="0 0 56 56" fill="none" xmlns="http://www.w3.org/2000/svg">
<path d="M27.3462 5.99527L11.5225 44.0279C11.3691 44.3967 11.6401 44.803 12.0396 44.803L43.9551 44.803C44.356 44.803 44.627 44.394 44.4708 44.0248L28.379 5.99218C28.1856 5.53498 27.5369 5.53692 27.3462 5.99527Z" fill="#E8E8E8"/>
<path fill-rule="evenodd" clip-rule="evenodd" d="M22.6348 17.389L19.3406 25.4256L34.1778 19.9442L31.7145 14.0346L22.6348 17.389ZM29.3466 8.35408L28.351 5.96563C28.1589 5.50477 27.5053 5.50671 27.3159 5.9687L25.8013 9.66384L29.3466 8.35408ZM36.5457 25.6247L16.1741 33.1508L12.8799 41.1874L39.0091 31.5342L36.5457 25.6247ZM41.377 37.2148L20.9665 44.7552L43.68 44.7552C44.0796 44.7552 44.3506 44.3486 44.1969 43.9797L41.377 37.2148Z" fill="#1E1E1E"/>
<path d="M49.28 50.4029C49.28 50.7122 49.0293 50.9629 48.72 50.9629L7.84003 50.9629C7.53075 50.9629 7.28003 50.7122 7.28003 50.4029L7.28003 44.8029C7.28003 44.4936 7.53075 44.2429 7.84003 44.2429L48.72 44.2429C49.0293 44.2429 49.28 44.4936 49.28 44.8029L49.28 50.4029Z" fill="#1E1E1E"/>
</svg>
