<svg width="598" height="840" viewBox="0 0 598 840" fill="none" xmlns="http://www.w3.org/2000/svg">
<g clip-path="url(#clip0_855_47014)">
<rect y="0.00195312" width="598" height="840" rx="40" fill="#1E1E1E"/>
<rect y="0.00195312" width="598" height="840" rx="40" fill="url(#paint0_linear_855_47014)"/>
<g opacity="0.6">
<rect x="-3" y="0.00195312" width="181.624" height="244" fill="#2D2D2D"/>
<rect x="10.7593" y="16.5137" width="152.271" height="29.3534" fill="url(#paint1_linear_855_47014)"/>
<rect x="10.7593" y="112.828" width="88.9774" height="71.5489" fill="url(#paint2_linear_855_47014)"/>
<rect x="163.03" y="92.6484" width="152.271" height="29.3534" transform="rotate(-180 163.03 92.6484)" fill="url(#paint3_linear_855_47014)"/>
<rect x="163.03" y="221.986" width="152.271" height="29.3534" transform="rotate(-180 163.03 221.986)" fill="url(#paint4_linear_855_47014)"/>
<rect x="93.3159" y="150.438" width="69.7143" height="29.3534" fill="url(#paint5_linear_855_47014)"/>
<rect x="93.3159" y="112.828" width="44.9474" height="29.3534" fill="url(#paint6_linear_855_47014)"/>
</g>
<g opacity="0.6">
<rect x="-3" y="274.002" width="181.624" height="244" fill="#2D2D2D"/>
<rect x="10.7593" y="290.514" width="152.271" height="29.3534" fill="url(#paint7_linear_855_47014)"/>
<rect x="10.7593" y="386.828" width="88.9774" height="71.5489" fill="url(#paint8_linear_855_47014)"/>
<rect x="163.03" y="366.648" width="152.271" height="29.3534" transform="rotate(-180 163.03 366.648)" fill="url(#paint9_linear_855_47014)"/>
<rect x="163.03" y="495.986" width="152.271" height="29.3534" transform="rotate(-180 163.03 495.986)" fill="url(#paint10_linear_855_47014)"/>
<rect x="93.3159" y="424.438" width="69.7143" height="29.3534" fill="url(#paint11_linear_855_47014)"/>
<rect x="93.3159" y="386.828" width="44.9474" height="29.3534" fill="url(#paint12_linear_855_47014)"/>
</g>
<g opacity="0.6">
<rect x="-3" y="548.002" width="181.624" height="244" fill="#2D2D2D"/>
<rect x="10.7593" y="564.514" width="152.271" height="29.3534" fill="url(#paint13_linear_855_47014)"/>
<rect x="10.7593" y="660.828" width="88.9774" height="71.5489" fill="url(#paint14_linear_855_47014)"/>
<rect x="163.03" y="640.648" width="152.271" height="29.3534" transform="rotate(-180 163.03 640.648)" fill="url(#paint15_linear_855_47014)"/>
<rect x="163.03" y="769.986" width="152.271" height="29.3534" transform="rotate(-180 163.03 769.986)" fill="url(#paint16_linear_855_47014)"/>
<rect x="93.3159" y="698.438" width="69.7143" height="29.3534" fill="url(#paint17_linear_855_47014)"/>
<rect x="93.3159" y="660.828" width="44.9474" height="29.3534" fill="url(#paint18_linear_855_47014)"/>
</g>
<g opacity="0.6">
<rect x="208" y="108.002" width="181.624" height="244" fill="#2D2D2D"/>
<rect x="221.76" y="124.514" width="152.271" height="29.3534" fill="url(#paint19_linear_855_47014)"/>
<rect x="221.76" y="220.828" width="88.9774" height="71.5489" fill="url(#paint20_linear_855_47014)"/>
<rect x="374.029" y="200.648" width="152.271" height="29.3534" transform="rotate(-180 374.029 200.648)" fill="url(#paint21_linear_855_47014)"/>
<rect x="374.029" y="329.986" width="152.271" height="29.3534" transform="rotate(-180 374.029 329.986)" fill="url(#paint22_linear_855_47014)"/>
<rect x="304.316" y="258.438" width="69.7143" height="29.3534" fill="url(#paint23_linear_855_47014)"/>
<rect x="304.316" y="220.828" width="44.9474" height="29.3534" fill="url(#paint24_linear_855_47014)"/>
</g>
<g opacity="0.6">
<rect x="208" y="382.002" width="181.624" height="244" fill="#2D2D2D"/>
<rect x="221.76" y="398.514" width="152.271" height="29.3534" fill="url(#paint25_linear_855_47014)"/>
<rect x="221.76" y="494.828" width="88.9774" height="71.5489" fill="url(#paint26_linear_855_47014)"/>
<rect x="374.029" y="474.648" width="152.271" height="29.3534" transform="rotate(-180 374.029 474.648)" fill="url(#paint27_linear_855_47014)"/>
<rect x="374.029" y="603.986" width="152.271" height="29.3534" transform="rotate(-180 374.029 603.986)" fill="url(#paint28_linear_855_47014)"/>
<rect x="304.316" y="532.438" width="69.7143" height="29.3534" fill="url(#paint29_linear_855_47014)"/>
<rect x="304.316" y="494.828" width="44.9474" height="29.3534" fill="url(#paint30_linear_855_47014)"/>
</g>
<g opacity="0.6">
<rect x="420.248" y="0.00195312" width="181.624" height="244" fill="#2D2D2D"/>
<rect x="434.007" y="16.5137" width="152.271" height="29.3534" fill="url(#paint31_linear_855_47014)"/>
<rect x="434.007" y="112.828" width="88.9774" height="71.5489" fill="url(#paint32_linear_855_47014)"/>
<rect x="586.278" y="92.6484" width="152.271" height="29.3534" transform="rotate(-180 586.278 92.6484)" fill="url(#paint33_linear_855_47014)"/>
<rect x="586.278" y="221.986" width="152.271" height="29.3534" transform="rotate(-180 586.278 221.986)" fill="url(#paint34_linear_855_47014)"/>
<rect x="516.564" y="150.438" width="69.7143" height="29.3534" fill="url(#paint35_linear_855_47014)"/>
<rect x="516.564" y="112.828" width="44.9474" height="29.3534" fill="url(#paint36_linear_855_47014)"/>
</g>
<g opacity="0.6">
<rect x="420.248" y="274.002" width="181.624" height="244" fill="#2D2D2D"/>
<rect x="434.007" y="290.514" width="152.271" height="29.3534" fill="url(#paint37_linear_855_47014)"/>
<rect x="434.007" y="386.828" width="88.9774" height="71.5489" fill="url(#paint38_linear_855_47014)"/>
<rect x="586.278" y="366.648" width="152.271" height="29.3534" transform="rotate(-180 586.278 366.648)" fill="url(#paint39_linear_855_47014)"/>
<rect x="586.278" y="495.986" width="152.271" height="29.3534" transform="rotate(-180 586.278 495.986)" fill="url(#paint40_linear_855_47014)"/>
<rect x="516.564" y="424.438" width="69.7143" height="29.3534" fill="url(#paint41_linear_855_47014)"/>
<rect x="516.564" y="386.828" width="44.9474" height="29.3534" fill="url(#paint42_linear_855_47014)"/>
</g>
<g opacity="0.6">
<rect x="420.248" y="548.002" width="181.624" height="244" fill="#2D2D2D"/>
<rect x="434.007" y="564.514" width="152.271" height="29.3534" fill="url(#paint43_linear_855_47014)"/>
<rect x="434.007" y="660.828" width="88.9774" height="71.5489" fill="url(#paint44_linear_855_47014)"/>
<rect x="586.278" y="640.648" width="152.271" height="29.3534" transform="rotate(-180 586.278 640.648)" fill="url(#paint45_linear_855_47014)"/>
<rect x="586.278" y="769.986" width="152.271" height="29.3534" transform="rotate(-180 586.278 769.986)" fill="url(#paint46_linear_855_47014)"/>
<rect x="516.564" y="698.438" width="69.7143" height="29.3534" fill="url(#paint47_linear_855_47014)"/>
<rect x="516.564" y="660.828" width="44.9474" height="29.3534" fill="url(#paint48_linear_855_47014)"/>
</g>
<g opacity="0.6">
<rect x="208" y="-165.998" width="181.624" height="244" fill="#2D2D2D"/>
<rect x="221.76" y="-53.1719" width="88.9774" height="71.5489" fill="url(#paint49_linear_855_47014)"/>
<rect x="374.029" y="55.9863" width="152.271" height="29.3534" transform="rotate(-180 374.029 55.9863)" fill="url(#paint50_linear_855_47014)"/>
<rect x="304.316" y="-15.5625" width="69.7143" height="29.3534" fill="url(#paint51_linear_855_47014)"/>
</g>
<g opacity="0.6">
<rect x="208" y="-165.998" width="181.624" height="244" fill="#2D2D2D"/>
<rect x="221.76" y="-53.1719" width="88.9774" height="71.5489" fill="url(#paint52_linear_855_47014)"/>
<rect x="374.029" y="55.9863" width="152.271" height="29.3534" transform="rotate(-180 374.029 55.9863)" fill="url(#paint53_linear_855_47014)"/>
<rect x="304.316" y="-15.5625" width="69.7143" height="29.3534" fill="url(#paint54_linear_855_47014)"/>
</g>
<rect x="-51" y="230.002" width="701" height="707" fill="url(#paint55_linear_855_47014)"/>
<path d="M210.906 595.471V604.189H214.75V607.439H210.906V616.689H206.906V595.471H210.906ZM188.344 601.596V598.439H194.812V595.408H198.781V598.439H205.219V601.596H188.344ZM189.719 608.096C189.719 604.799 192.641 602.596 196.781 602.596C200.906 602.596 203.781 604.799 203.781 608.096C203.781 611.377 200.906 613.533 196.781 613.533C192.641 613.533 189.719 611.377 189.719 608.096ZM192.469 623.377V615.064H196.438V620.189H211.938V623.377H192.469ZM193.625 608.096C193.609 609.658 194.875 610.502 196.781 610.502C198.703 610.502 200 609.658 200 608.096C200 606.518 198.703 605.643 196.781 605.627C194.875 605.643 193.609 606.518 193.625 608.096ZM246.469 603.127V606.283H226.719V596.189H230.719V603.127H246.469ZM223.375 611.971V608.846H249.375V611.971H238.656V617.002H234.688V611.971H223.375ZM226.438 623.377V614.814H230.406V620.189H246.688V623.377H226.438ZM275.688 595.439V623.877H271.875V595.439H275.688ZM251.281 607.752C251.281 601.393 253.703 597.455 257.469 597.471C260.891 597.455 263.234 600.658 263.672 605.971H266V595.846H269.75V622.564H266V609.127H263.703C263.359 614.705 260.969 618.096 257.469 618.096C253.703 618.096 251.281 614.143 251.281 607.752ZM254.969 607.752C254.938 612.127 255.875 614.283 257.469 614.252C259.109 614.283 260.078 612.127 260.062 607.752C260.078 603.393 259.109 601.221 257.469 601.221C255.875 601.221 254.938 603.393 254.969 607.752ZM317.219 595.439V610.189H313.25V595.439H317.219ZM293.875 603.127C293.875 599.314 297.141 596.564 301.531 596.596C305.859 596.564 309.109 599.314 309.125 603.127C309.109 606.939 305.859 609.658 301.531 609.658C297.141 609.658 293.875 606.939 293.875 603.127ZM296.781 623.564V615.939H302.688V614.283H296.781V611.314H306.625V618.689H300.625V620.611C303.875 620.58 305.906 620.455 308.25 620.002L308.625 622.939C305.719 623.518 303.266 623.58 298.656 623.564H296.781ZM297.75 603.127C297.719 605.143 299.328 606.439 301.531 606.439C303.688 606.439 305.266 605.143 305.281 603.127C305.266 601.064 303.672 599.861 301.531 599.877C299.344 599.861 297.719 601.064 297.75 603.127ZM307.688 614.502V611.314H317.219V623.783H313.312V614.502H307.688ZM344.188 603.189V606.314H324.312V596.439H328.281V603.189H344.188ZM321.062 612.502V609.377H347.094V612.502H321.062ZM324.062 623.252V614.814H328.062V620.064H344.375V623.252H324.062ZM364.062 596.971C366.328 596.955 368.312 597.799 369.672 599.189H376.125V595.439H380.094V612.096H376.125V608.689H369.641C368.281 610.064 366.312 610.893 364.062 610.877C359.75 610.893 356.469 607.955 356.5 603.939C356.469 599.877 359.75 596.955 364.062 596.971ZM360.281 603.939C360.266 606.127 361.844 607.518 364.062 607.502C366.203 607.518 367.766 606.127 367.781 603.939C367.766 601.674 366.203 600.361 364.062 600.377C361.844 600.361 360.266 601.674 360.281 603.939ZM360.594 618.283C360.594 614.752 364.359 612.674 370.375 612.689C376.391 612.674 380.172 614.752 380.188 618.283C380.172 621.814 376.391 623.893 370.375 623.877C364.359 623.893 360.594 621.814 360.594 618.283ZM364.5 618.283C364.5 619.939 366.609 620.783 370.375 620.783C374.219 620.783 376.266 619.939 376.281 618.283C376.266 616.58 374.219 615.736 370.375 615.721C366.609 615.736 364.5 616.58 364.5 618.283ZM371.375 602.346C371.5 602.846 371.562 603.393 371.562 603.939C371.562 604.486 371.5 605.002 371.391 605.502H376.125V602.346H371.375ZM394.156 599.908C394.141 603.361 396.156 606.674 400.656 608.064L398.531 611.158C395.516 610.158 393.406 608.221 392.188 605.736C390.953 608.596 388.75 610.846 385.5 611.939L383.344 608.814C388.094 607.236 390.125 603.455 390.156 599.533V596.939H394.156V599.908ZM387.281 618.377C387.266 614.924 391.031 612.877 397.031 612.877C402.922 612.877 406.609 614.924 406.625 618.377C406.609 621.861 402.922 623.893 397.031 623.877C391.031 623.893 387.266 621.861 387.281 618.377ZM391.281 618.377C391.25 619.986 393.297 620.752 397.031 620.752C400.719 620.752 402.688 619.986 402.688 618.377C402.688 616.83 400.719 616.002 397.031 616.002C393.297 616.002 391.25 616.83 391.281 618.377ZM402.344 612.314V595.439H406.344V602.096H410.188V605.408H406.344V612.314H402.344Z" fill="white"/>
<path d="M205.037 651.178C206.492 651.168 207.732 651.715 208.553 652.623H212.928V650.162H214.783V660.494H212.928V658.131H208.543C207.723 659.029 206.482 659.566 205.037 659.557C202.4 659.566 200.438 657.818 200.447 655.377C200.438 652.906 202.4 651.168 205.037 651.178ZM202.225 655.377C202.215 656.91 203.396 657.994 205.037 657.975C206.629 657.994 207.811 656.91 207.811 655.377C207.811 653.805 206.629 652.76 205.037 652.779C203.396 652.76 202.215 653.805 202.225 655.377ZM203.006 664.264C202.996 662.125 205.262 660.875 208.924 660.885C212.566 660.875 214.832 662.125 214.842 664.264C214.832 666.393 212.566 667.633 208.924 667.623C205.262 667.633 202.996 666.393 203.006 664.264ZM204.822 664.264C204.812 665.465 206.355 666.168 208.924 666.158C211.492 666.168 213.025 665.465 213.025 664.264C213.025 663.014 211.492 662.32 208.924 662.311C206.355 662.32 204.812 663.014 204.822 664.264ZM209.402 654.107C209.52 654.498 209.588 654.928 209.588 655.377C209.588 655.807 209.52 656.227 209.402 656.607H212.928V654.107H209.402ZM223.514 652.955C223.504 655.25 225.125 657.389 227.732 658.248L226.736 659.713C224.822 659.039 223.387 657.672 222.625 655.943C221.863 657.906 220.379 659.449 218.338 660.201L217.342 658.717C220.076 657.75 221.658 655.416 221.678 652.799V651.08H223.514V652.955ZM219.705 664.381C219.705 662.33 221.941 661.129 225.584 661.139C229.178 661.129 231.385 662.33 231.385 664.381C231.385 666.451 229.178 667.633 225.584 667.623C221.941 667.633 219.705 666.451 219.705 664.381ZM221.561 664.381C221.551 665.533 223.055 666.158 225.584 666.178C228.094 666.158 229.578 665.533 229.568 664.381C229.578 663.268 228.094 662.604 225.584 662.604C223.055 662.604 221.551 663.268 221.561 664.381ZM229.373 660.729V650.162H231.229V654.557H233.768V656.119H231.229V660.729H229.373ZM242.732 650.455C246.678 650.445 248.973 651.51 248.982 653.463C248.973 655.426 246.678 656.49 242.732 656.49C238.787 656.49 236.473 655.426 236.482 653.463C236.473 651.51 238.787 650.445 242.732 650.455ZM234.764 659.049V657.564H250.721V659.049H234.764ZM236.678 661.783V660.396H248.709V664.498H238.514V666.061H249.197V667.486H236.697V663.15H246.873V661.783H236.678ZM238.416 653.463C238.406 654.547 239.949 655.104 242.732 655.104C245.535 655.104 247.078 654.547 247.068 653.463C247.078 652.428 245.535 651.822 242.732 651.822C239.949 651.822 238.406 652.428 238.416 653.463ZM264.373 651.393V652.877H259.49V654.928H263.689V656.354H259.49V658.561C261.805 658.551 263.318 658.463 265.115 658.131L265.291 659.615C263.279 659.986 261.609 660.045 258.846 660.045H257.713V651.393H264.373ZM259.9 663.287V661.803H271.854V667.662H270.018V663.287H259.9ZM264.49 656.236V654.713H266.658V650.533H268.416V660.885H266.658V656.236H264.49ZM270.096 661.002V650.182H271.854V661.002H270.096ZM283.104 652.643C283.104 655.494 286.141 658.189 289.51 658.795L288.65 660.338C285.848 659.732 283.279 657.896 282.146 655.436C280.994 657.887 278.426 659.713 275.623 660.338L274.803 658.795C278.123 658.17 281.141 655.494 281.15 652.643V651.314H283.104V652.643ZM274.217 665.357V663.814H290.232V665.357H274.217ZM305.701 659.479V660.963H293.514V651.607H305.525V653.111H295.389V655.475H305.154V656.939H295.389V659.479H305.701ZM291.502 665.455V663.932H307.518V665.455H291.502ZM324.803 664.01V665.572H308.787V664.01H315.838V660.943H310.74V655.377H321.014V652.916H310.701V651.393H322.85V656.861H312.576V659.42H323.26V660.943H317.674V664.01H324.803ZM345.545 650.182V663.111H343.689V658.561H339.861V660.201H331.795V651.334H333.65V654.303H338.025V651.334H339.861V653.287H343.689V650.182H345.545ZM333.65 658.697H338.025V655.729H333.65V658.697ZM334.119 667.291V661.842H335.994V665.787H345.936V667.291H334.119ZM339.861 657.057H343.689V654.811H339.861V657.057ZM362.01 650.162V656.158H364.51V657.701H362.01V663.834H360.154V650.162H362.01ZM348.123 660.436C349.471 660.436 351.043 660.436 352.693 660.377V659.156C350.701 658.922 349.432 657.965 349.451 656.529C349.432 654.83 351.102 653.814 353.611 653.834C356.121 653.814 357.762 654.83 357.771 656.529C357.762 657.965 356.521 658.922 354.549 659.146V660.289C356.111 660.201 357.693 660.055 359.158 659.83L359.314 661.139C355.584 661.842 351.375 661.891 348.318 661.92L348.123 660.436ZM348.572 653.15V651.783H352.693V650.104H354.549V651.783H358.67V653.15H348.572ZM350.701 667.291V662.916H352.557V665.787H362.635V667.291H350.701ZM351.209 656.529C351.209 657.379 352.117 657.916 353.611 657.916C355.086 657.916 356.004 657.379 355.994 656.529C356.004 655.621 355.086 655.094 353.611 655.104C352.117 655.094 351.209 655.621 351.209 656.529ZM379.158 650.162V657.252H381.971V658.795H379.158V667.662H377.322V650.162H379.158ZM365.428 654.42V652.896H369.744V650.396H371.6V652.896H375.799V654.42H365.428ZM366.326 659.771C366.326 657.389 368.162 655.709 370.682 655.709C373.191 655.709 375.027 657.389 375.037 659.771C375.027 662.174 373.191 663.844 370.682 663.854C368.162 663.844 366.326 662.174 366.326 659.771ZM368.104 659.771C368.094 661.295 369.188 662.311 370.682 662.291C372.166 662.311 373.25 661.295 373.26 659.771C373.25 658.277 372.166 657.242 370.682 657.232C369.188 657.242 368.094 658.277 368.104 659.771ZM387.557 651.471C389.158 651.48 390.467 652.389 391.238 653.971H395.564V650.162H397.4V667.701H395.564V660.982H391.365C390.613 662.74 389.246 663.766 387.557 663.756C384.949 663.766 383.104 661.383 383.123 657.604C383.104 653.863 384.949 651.48 387.557 651.471ZM384.881 657.604C384.891 660.387 385.975 662.096 387.557 662.096C389.139 662.096 390.223 660.387 390.232 657.604C390.223 654.859 389.139 653.141 387.557 653.131C385.975 653.141 384.891 654.859 384.881 657.604ZM391.766 655.494C391.902 656.139 391.99 656.842 391.99 657.604C391.99 658.268 391.932 658.883 391.814 659.459H395.564V655.494H391.766ZM237.43 682.182V687.807H239.969V689.35H237.43V695.268H235.574V682.182H237.43ZM223.699 685.717V684.213H227.996V682.162H229.852V684.213H234.129V685.717H223.699ZM224.656 689.857C224.646 687.855 226.375 686.547 228.914 686.557C231.424 686.547 233.152 687.855 233.152 689.857C233.152 691.84 231.424 693.129 228.914 693.139C226.375 693.129 224.646 691.84 224.656 689.857ZM226.336 699.291V694.232H228.191V697.787H238.172V699.291H226.336ZM226.453 689.857C226.434 691 227.43 691.703 228.914 691.693C230.398 691.703 231.395 691 231.414 689.857C231.395 688.705 230.398 687.992 228.914 687.982C227.43 687.992 226.434 688.705 226.453 689.857ZM260.008 687.299V688.783H247.996V682.768H249.852V687.299H260.008ZM245.848 692.162V690.678H261.824V692.162H254.891V695.619H253.055V692.162H245.848ZM247.84 699.291V694.135H249.676V697.787H260.145V699.291H247.84ZM278.191 682.162V699.662H276.414V682.162H278.191ZM263.328 689.721C263.328 685.932 264.812 683.559 267.098 683.568C269.227 683.559 270.662 685.58 270.877 688.861H272.859V682.494H274.637V698.803H272.859V690.365H270.887C270.721 693.783 269.266 695.902 267.098 695.893C264.812 695.902 263.328 693.52 263.328 689.721ZM265.047 689.721C265.047 692.504 265.838 694.145 267.098 694.135C268.387 694.145 269.188 692.504 269.188 689.721C269.188 686.928 268.387 685.297 267.098 685.307C265.838 685.297 265.047 686.928 265.047 689.721ZM290.145 683.178C291.6 683.168 292.84 683.715 293.66 684.623H298.035V682.162H299.891V692.494H298.035V690.131H293.65C292.83 691.029 291.59 691.566 290.145 691.557C287.508 691.566 285.545 689.818 285.555 687.377C285.545 684.906 287.508 683.168 290.145 683.178ZM287.332 687.377C287.322 688.91 288.504 689.994 290.145 689.975C291.736 689.994 292.918 688.91 292.918 687.377C292.918 685.805 291.736 684.76 290.145 684.779C288.504 684.76 287.322 685.805 287.332 687.377ZM288.113 696.264C288.104 694.125 290.369 692.875 294.031 692.885C297.674 692.875 299.939 694.125 299.949 696.264C299.939 698.393 297.674 699.633 294.031 699.623C290.369 699.633 288.104 698.393 288.113 696.264ZM289.93 696.264C289.92 697.465 291.463 698.168 294.031 698.158C296.6 698.168 298.133 697.465 298.133 696.264C298.133 695.014 296.6 694.32 294.031 694.311C291.463 694.32 289.92 695.014 289.93 696.264ZM294.51 686.107C294.627 686.498 294.695 686.928 294.695 687.377C294.695 687.807 294.627 688.227 294.51 688.607H298.035V686.107H294.51ZM308.621 684.955C308.611 687.25 310.232 689.389 312.84 690.248L311.844 691.713C309.93 691.039 308.494 689.672 307.732 687.943C306.971 689.906 305.486 691.449 303.445 692.201L302.449 690.717C305.184 689.75 306.766 687.416 306.785 684.799V683.08H308.621V684.955ZM304.812 696.381C304.812 694.33 307.049 693.129 310.691 693.139C314.285 693.129 316.492 694.33 316.492 696.381C316.492 698.451 314.285 699.633 310.691 699.623C307.049 699.633 304.812 698.451 304.812 696.381ZM306.668 696.381C306.658 697.533 308.162 698.158 310.691 698.178C313.201 698.158 314.686 697.533 314.676 696.381C314.686 695.268 313.201 694.604 310.691 694.604C308.162 694.604 306.658 695.268 306.668 696.381ZM314.48 692.729V682.162H316.336V686.557H318.875V688.119H316.336V692.729H314.48ZM327.84 682.455C331.785 682.445 334.08 683.51 334.09 685.463C334.08 687.426 331.785 688.49 327.84 688.49C323.895 688.49 321.58 687.426 321.59 685.463C321.58 683.51 323.895 682.445 327.84 682.455ZM319.871 691.049V689.564H335.828V691.049H319.871ZM321.785 693.783V692.396H333.816V696.498H323.621V698.061H334.305V699.486H321.805V695.15H331.98V693.783H321.785ZM323.523 685.463C323.514 686.547 325.057 687.104 327.84 687.104C330.643 687.104 332.186 686.547 332.176 685.463C332.186 684.428 330.643 683.822 327.84 683.822C325.057 683.822 323.514 684.428 323.523 685.463ZM356.531 682.162V691.4H354.695V682.162H356.531ZM342.391 686.889C342.4 684.564 344.334 682.924 347 682.924C349.637 682.924 351.58 684.564 351.59 686.889C351.58 689.203 349.637 690.844 347 690.834C344.334 690.844 342.4 689.203 342.391 686.889ZM344.207 699.447V695.014H348.289V693.549H344.207V692.123H350.105V696.342H346.004V698.041C348.191 698.021 349.578 697.963 351.238 697.65L351.434 699.037C349.51 699.408 347.977 699.438 345.301 699.447H344.207ZM344.207 686.889C344.197 688.324 345.389 689.33 347 689.33C348.602 689.33 349.793 688.324 349.793 686.889C349.793 685.443 348.602 684.457 347 684.467C345.389 684.457 344.197 685.443 344.207 686.889ZM350.828 693.646V692.123H356.531V699.545H354.715V693.646H350.828ZM373.875 682.162V699.662H372V682.162H373.875ZM359.5 694.975C364.148 692.758 366.424 689.604 366.785 685.521H360.34V684.037H368.66C368.66 689.164 366.482 693.598 360.477 696.479L359.5 694.975Z" fill="#BBBBBB"/>
<circle cx="257" cy="781.002" r="4" fill="#E8E8E8"/>
<circle cx="285" cy="781.002" r="4" fill="#787878"/>
<circle cx="313" cy="781.002" r="4" fill="#787878"/>
<circle cx="341" cy="781.002" r="4" fill="#787878"/>
<g clip-path="url(#clip1_855_47014)">
<path d="M151 306.512C151 304.573 152.571 303.002 154.51 303.002H442.33C444.269 303.002 445.84 304.573 445.84 306.512V474.992C445.84 476.93 444.269 478.502 442.33 478.502H154.51C152.571 478.502 151 476.93 151 474.992V306.512Z" fill="#E8E8E8"/>
<path d="M151 306.512C151 304.573 152.571 303.002 154.51 303.002H442.33C444.269 303.002 445.84 304.573 445.84 306.512V345.122H151V306.512Z" fill="#787878"/>
<path fill-rule="evenodd" clip-rule="evenodd" d="M256.301 373.203H340.541C342.479 373.203 344.051 374.775 344.051 376.713V430.533C344.051 432.472 342.479 434.043 340.541 434.043H256.301C254.362 434.043 252.791 432.472 252.791 430.533V376.713C252.791 374.775 254.362 373.203 256.301 373.203ZM287.014 417.994L316.673 403.624L287.014 389.254V417.994Z" fill="#1E1E1E"/>
<path fill-rule="evenodd" clip-rule="evenodd" d="M386.5 176.512C386.5 174.573 384.929 173.002 382.99 173.002H214.51C212.571 173.002 211 174.573 211 176.512V253.732C211 255.67 212.571 257.242 214.51 257.242H284.565C285.819 257.242 286.978 257.911 287.605 258.997L295.711 273.036C297.062 275.376 300.439 275.376 301.79 273.036L309.895 258.997C310.522 257.911 311.681 257.242 312.935 257.242H382.99C384.929 257.242 386.5 255.67 386.5 253.732V176.512Z" fill="#DFFF00"/>
<circle cx="256.63" cy="218.633" r="7.02" fill="#1E1E1E"/>
<circle cx="298.75" cy="218.633" r="7.02" fill="#1E1E1E"/>
<circle cx="340.87" cy="218.633" r="7.02" fill="#1E1E1E"/>
</g>
</g>
<defs>
<linearGradient id="paint0_linear_855_47014" x1="332.75" y1="724.808" x2="326.192" y2="-99.8602" gradientUnits="userSpaceOnUse">
<stop stop-color="#1E1E1E"/>
<stop offset="1" stop-color="#1E1E1E" stop-opacity="0"/>
</linearGradient>
<linearGradient id="paint1_linear_855_47014" x1="48.3683" y1="21.5588" x2="137.804" y2="25.228" gradientUnits="userSpaceOnUse">
<stop stop-color="#3D3D3D" stop-opacity="0.8"/>
<stop offset="1" stop-color="#3D3D3D" stop-opacity="0"/>
</linearGradient>
<linearGradient id="paint2_linear_855_47014" x1="32.7356" y1="125.126" x2="85.0794" y2="125.64" gradientUnits="userSpaceOnUse">
<stop stop-color="#3D3D3D" stop-opacity="0.8"/>
<stop offset="1" stop-color="#3D3D3D" stop-opacity="0"/>
</linearGradient>
<linearGradient id="paint3_linear_855_47014" x1="200.639" y1="97.6935" x2="290.075" y2="101.363" gradientUnits="userSpaceOnUse">
<stop stop-color="#3D3D3D" stop-opacity="0.8"/>
<stop offset="1" stop-color="#3D3D3D" stop-opacity="0"/>
</linearGradient>
<linearGradient id="paint4_linear_855_47014" x1="200.639" y1="227.031" x2="290.075" y2="230.701" gradientUnits="userSpaceOnUse">
<stop stop-color="#3D3D3D" stop-opacity="0.8"/>
<stop offset="1" stop-color="#3D3D3D" stop-opacity="0"/>
</linearGradient>
<linearGradient id="paint5_linear_855_47014" x1="110.535" y1="155.483" x2="151.536" y2="156.253" gradientUnits="userSpaceOnUse">
<stop stop-color="#3D3D3D" stop-opacity="0.8"/>
<stop offset="1" stop-color="#3D3D3D" stop-opacity="0"/>
</linearGradient>
<linearGradient id="paint6_linear_855_47014" x1="104.417" y1="117.873" x2="130.858" y2="118.193" gradientUnits="userSpaceOnUse">
<stop stop-color="#3D3D3D" stop-opacity="0.8"/>
<stop offset="1" stop-color="#3D3D3D" stop-opacity="0"/>
</linearGradient>
<linearGradient id="paint7_linear_855_47014" x1="48.3683" y1="295.559" x2="137.804" y2="299.228" gradientUnits="userSpaceOnUse">
<stop stop-color="#3D3D3D" stop-opacity="0.8"/>
<stop offset="1" stop-color="#3D3D3D" stop-opacity="0"/>
</linearGradient>
<linearGradient id="paint8_linear_855_47014" x1="32.7356" y1="399.126" x2="85.0794" y2="399.64" gradientUnits="userSpaceOnUse">
<stop stop-color="#3D3D3D" stop-opacity="0.8"/>
<stop offset="1" stop-color="#3D3D3D" stop-opacity="0"/>
</linearGradient>
<linearGradient id="paint9_linear_855_47014" x1="200.639" y1="371.694" x2="290.075" y2="375.363" gradientUnits="userSpaceOnUse">
<stop stop-color="#3D3D3D" stop-opacity="0.8"/>
<stop offset="1" stop-color="#3D3D3D" stop-opacity="0"/>
</linearGradient>
<linearGradient id="paint10_linear_855_47014" x1="200.639" y1="501.031" x2="290.075" y2="504.701" gradientUnits="userSpaceOnUse">
<stop stop-color="#3D3D3D" stop-opacity="0.8"/>
<stop offset="1" stop-color="#3D3D3D" stop-opacity="0"/>
</linearGradient>
<linearGradient id="paint11_linear_855_47014" x1="110.535" y1="429.483" x2="151.536" y2="430.253" gradientUnits="userSpaceOnUse">
<stop stop-color="#3D3D3D" stop-opacity="0.8"/>
<stop offset="1" stop-color="#3D3D3D" stop-opacity="0"/>
</linearGradient>
<linearGradient id="paint12_linear_855_47014" x1="104.417" y1="391.873" x2="130.858" y2="392.193" gradientUnits="userSpaceOnUse">
<stop stop-color="#3D3D3D" stop-opacity="0.8"/>
<stop offset="1" stop-color="#3D3D3D" stop-opacity="0"/>
</linearGradient>
<linearGradient id="paint13_linear_855_47014" x1="48.3683" y1="569.559" x2="137.804" y2="573.228" gradientUnits="userSpaceOnUse">
<stop stop-color="#3D3D3D" stop-opacity="0.8"/>
<stop offset="1" stop-color="#3D3D3D" stop-opacity="0"/>
</linearGradient>
<linearGradient id="paint14_linear_855_47014" x1="32.7356" y1="673.126" x2="85.0794" y2="673.64" gradientUnits="userSpaceOnUse">
<stop stop-color="#3D3D3D" stop-opacity="0.8"/>
<stop offset="1" stop-color="#3D3D3D" stop-opacity="0"/>
</linearGradient>
<linearGradient id="paint15_linear_855_47014" x1="200.639" y1="645.694" x2="290.075" y2="649.363" gradientUnits="userSpaceOnUse">
<stop stop-color="#3D3D3D" stop-opacity="0.8"/>
<stop offset="1" stop-color="#3D3D3D" stop-opacity="0"/>
</linearGradient>
<linearGradient id="paint16_linear_855_47014" x1="200.639" y1="775.031" x2="290.075" y2="778.701" gradientUnits="userSpaceOnUse">
<stop stop-color="#3D3D3D" stop-opacity="0.8"/>
<stop offset="1" stop-color="#3D3D3D" stop-opacity="0"/>
</linearGradient>
<linearGradient id="paint17_linear_855_47014" x1="110.535" y1="703.483" x2="151.536" y2="704.253" gradientUnits="userSpaceOnUse">
<stop stop-color="#3D3D3D" stop-opacity="0.8"/>
<stop offset="1" stop-color="#3D3D3D" stop-opacity="0"/>
</linearGradient>
<linearGradient id="paint18_linear_855_47014" x1="104.417" y1="665.873" x2="130.858" y2="666.193" gradientUnits="userSpaceOnUse">
<stop stop-color="#3D3D3D" stop-opacity="0.8"/>
<stop offset="1" stop-color="#3D3D3D" stop-opacity="0"/>
</linearGradient>
<linearGradient id="paint19_linear_855_47014" x1="259.369" y1="129.559" x2="348.805" y2="133.228" gradientUnits="userSpaceOnUse">
<stop stop-color="#3D3D3D" stop-opacity="0.8"/>
<stop offset="1" stop-color="#3D3D3D" stop-opacity="0"/>
</linearGradient>
<linearGradient id="paint20_linear_855_47014" x1="243.736" y1="233.126" x2="296.08" y2="233.64" gradientUnits="userSpaceOnUse">
<stop stop-color="#3D3D3D" stop-opacity="0.8"/>
<stop offset="1" stop-color="#3D3D3D" stop-opacity="0"/>
</linearGradient>
<linearGradient id="paint21_linear_855_47014" x1="411.638" y1="205.694" x2="501.074" y2="209.363" gradientUnits="userSpaceOnUse">
<stop stop-color="#3D3D3D" stop-opacity="0.8"/>
<stop offset="1" stop-color="#3D3D3D" stop-opacity="0"/>
</linearGradient>
<linearGradient id="paint22_linear_855_47014" x1="411.638" y1="335.031" x2="501.074" y2="338.701" gradientUnits="userSpaceOnUse">
<stop stop-color="#3D3D3D" stop-opacity="0.8"/>
<stop offset="1" stop-color="#3D3D3D" stop-opacity="0"/>
</linearGradient>
<linearGradient id="paint23_linear_855_47014" x1="321.535" y1="263.483" x2="362.536" y2="264.253" gradientUnits="userSpaceOnUse">
<stop stop-color="#3D3D3D" stop-opacity="0.8"/>
<stop offset="1" stop-color="#3D3D3D" stop-opacity="0"/>
</linearGradient>
<linearGradient id="paint24_linear_855_47014" x1="315.418" y1="225.873" x2="341.858" y2="226.193" gradientUnits="userSpaceOnUse">
<stop stop-color="#3D3D3D" stop-opacity="0.8"/>
<stop offset="1" stop-color="#3D3D3D" stop-opacity="0"/>
</linearGradient>
<linearGradient id="paint25_linear_855_47014" x1="259.369" y1="403.559" x2="348.805" y2="407.228" gradientUnits="userSpaceOnUse">
<stop stop-color="#3D3D3D" stop-opacity="0.8"/>
<stop offset="1" stop-color="#3D3D3D" stop-opacity="0"/>
</linearGradient>
<linearGradient id="paint26_linear_855_47014" x1="243.736" y1="507.126" x2="296.08" y2="507.64" gradientUnits="userSpaceOnUse">
<stop stop-color="#3D3D3D" stop-opacity="0.8"/>
<stop offset="1" stop-color="#3D3D3D" stop-opacity="0"/>
</linearGradient>
<linearGradient id="paint27_linear_855_47014" x1="411.638" y1="479.694" x2="501.074" y2="483.363" gradientUnits="userSpaceOnUse">
<stop stop-color="#3D3D3D" stop-opacity="0.8"/>
<stop offset="1" stop-color="#3D3D3D" stop-opacity="0"/>
</linearGradient>
<linearGradient id="paint28_linear_855_47014" x1="411.638" y1="609.031" x2="501.074" y2="612.701" gradientUnits="userSpaceOnUse">
<stop stop-color="#3D3D3D" stop-opacity="0.8"/>
<stop offset="1" stop-color="#3D3D3D" stop-opacity="0"/>
</linearGradient>
<linearGradient id="paint29_linear_855_47014" x1="321.535" y1="537.483" x2="362.536" y2="538.253" gradientUnits="userSpaceOnUse">
<stop stop-color="#3D3D3D" stop-opacity="0.8"/>
<stop offset="1" stop-color="#3D3D3D" stop-opacity="0"/>
</linearGradient>
<linearGradient id="paint30_linear_855_47014" x1="315.418" y1="499.873" x2="341.858" y2="500.193" gradientUnits="userSpaceOnUse">
<stop stop-color="#3D3D3D" stop-opacity="0.8"/>
<stop offset="1" stop-color="#3D3D3D" stop-opacity="0"/>
</linearGradient>
<linearGradient id="paint31_linear_855_47014" x1="471.616" y1="21.5588" x2="561.052" y2="25.228" gradientUnits="userSpaceOnUse">
<stop stop-color="#3D3D3D" stop-opacity="0.8"/>
<stop offset="1" stop-color="#3D3D3D" stop-opacity="0"/>
</linearGradient>
<linearGradient id="paint32_linear_855_47014" x1="455.984" y1="125.126" x2="508.327" y2="125.64" gradientUnits="userSpaceOnUse">
<stop stop-color="#3D3D3D" stop-opacity="0.8"/>
<stop offset="1" stop-color="#3D3D3D" stop-opacity="0"/>
</linearGradient>
<linearGradient id="paint33_linear_855_47014" x1="623.887" y1="97.6935" x2="713.323" y2="101.363" gradientUnits="userSpaceOnUse">
<stop stop-color="#3D3D3D" stop-opacity="0.8"/>
<stop offset="1" stop-color="#3D3D3D" stop-opacity="0"/>
</linearGradient>
<linearGradient id="paint34_linear_855_47014" x1="623.887" y1="227.031" x2="713.323" y2="230.701" gradientUnits="userSpaceOnUse">
<stop stop-color="#3D3D3D" stop-opacity="0.8"/>
<stop offset="1" stop-color="#3D3D3D" stop-opacity="0"/>
</linearGradient>
<linearGradient id="paint35_linear_855_47014" x1="533.782" y1="155.483" x2="574.783" y2="156.253" gradientUnits="userSpaceOnUse">
<stop stop-color="#3D3D3D" stop-opacity="0.8"/>
<stop offset="1" stop-color="#3D3D3D" stop-opacity="0"/>
</linearGradient>
<linearGradient id="paint36_linear_855_47014" x1="527.665" y1="117.873" x2="554.106" y2="118.193" gradientUnits="userSpaceOnUse">
<stop stop-color="#3D3D3D" stop-opacity="0.8"/>
<stop offset="1" stop-color="#3D3D3D" stop-opacity="0"/>
</linearGradient>
<linearGradient id="paint37_linear_855_47014" x1="471.616" y1="295.559" x2="561.052" y2="299.228" gradientUnits="userSpaceOnUse">
<stop stop-color="#3D3D3D" stop-opacity="0.8"/>
<stop offset="1" stop-color="#3D3D3D" stop-opacity="0"/>
</linearGradient>
<linearGradient id="paint38_linear_855_47014" x1="455.984" y1="399.126" x2="508.327" y2="399.64" gradientUnits="userSpaceOnUse">
<stop stop-color="#3D3D3D" stop-opacity="0.8"/>
<stop offset="1" stop-color="#3D3D3D" stop-opacity="0"/>
</linearGradient>
<linearGradient id="paint39_linear_855_47014" x1="623.887" y1="371.694" x2="713.323" y2="375.363" gradientUnits="userSpaceOnUse">
<stop stop-color="#3D3D3D" stop-opacity="0.8"/>
<stop offset="1" stop-color="#3D3D3D" stop-opacity="0"/>
</linearGradient>
<linearGradient id="paint40_linear_855_47014" x1="623.887" y1="501.031" x2="713.323" y2="504.701" gradientUnits="userSpaceOnUse">
<stop stop-color="#3D3D3D" stop-opacity="0.8"/>
<stop offset="1" stop-color="#3D3D3D" stop-opacity="0"/>
</linearGradient>
<linearGradient id="paint41_linear_855_47014" x1="533.782" y1="429.483" x2="574.783" y2="430.253" gradientUnits="userSpaceOnUse">
<stop stop-color="#3D3D3D" stop-opacity="0.8"/>
<stop offset="1" stop-color="#3D3D3D" stop-opacity="0"/>
</linearGradient>
<linearGradient id="paint42_linear_855_47014" x1="527.665" y1="391.873" x2="554.106" y2="392.193" gradientUnits="userSpaceOnUse">
<stop stop-color="#3D3D3D" stop-opacity="0.8"/>
<stop offset="1" stop-color="#3D3D3D" stop-opacity="0"/>
</linearGradient>
<linearGradient id="paint43_linear_855_47014" x1="471.616" y1="569.559" x2="561.052" y2="573.228" gradientUnits="userSpaceOnUse">
<stop stop-color="#3D3D3D" stop-opacity="0.8"/>
<stop offset="1" stop-color="#3D3D3D" stop-opacity="0"/>
</linearGradient>
<linearGradient id="paint44_linear_855_47014" x1="455.984" y1="673.126" x2="508.327" y2="673.64" gradientUnits="userSpaceOnUse">
<stop stop-color="#3D3D3D" stop-opacity="0.8"/>
<stop offset="1" stop-color="#3D3D3D" stop-opacity="0"/>
</linearGradient>
<linearGradient id="paint45_linear_855_47014" x1="623.887" y1="645.694" x2="713.323" y2="649.363" gradientUnits="userSpaceOnUse">
<stop stop-color="#3D3D3D" stop-opacity="0.8"/>
<stop offset="1" stop-color="#3D3D3D" stop-opacity="0"/>
</linearGradient>
<linearGradient id="paint46_linear_855_47014" x1="623.887" y1="775.031" x2="713.323" y2="778.701" gradientUnits="userSpaceOnUse">
<stop stop-color="#3D3D3D" stop-opacity="0.8"/>
<stop offset="1" stop-color="#3D3D3D" stop-opacity="0"/>
</linearGradient>
<linearGradient id="paint47_linear_855_47014" x1="533.782" y1="703.483" x2="574.783" y2="704.253" gradientUnits="userSpaceOnUse">
<stop stop-color="#3D3D3D" stop-opacity="0.8"/>
<stop offset="1" stop-color="#3D3D3D" stop-opacity="0"/>
</linearGradient>
<linearGradient id="paint48_linear_855_47014" x1="527.665" y1="665.873" x2="554.106" y2="666.193" gradientUnits="userSpaceOnUse">
<stop stop-color="#3D3D3D" stop-opacity="0.8"/>
<stop offset="1" stop-color="#3D3D3D" stop-opacity="0"/>
</linearGradient>
<linearGradient id="paint49_linear_855_47014" x1="243.736" y1="-40.8744" x2="296.08" y2="-40.3596" gradientUnits="userSpaceOnUse">
<stop stop-color="#3D3D3D" stop-opacity="0.8"/>
<stop offset="1" stop-color="#3D3D3D" stop-opacity="0"/>
</linearGradient>
<linearGradient id="paint50_linear_855_47014" x1="411.638" y1="61.0314" x2="501.074" y2="64.7006" gradientUnits="userSpaceOnUse">
<stop stop-color="#3D3D3D" stop-opacity="0.8"/>
<stop offset="1" stop-color="#3D3D3D" stop-opacity="0"/>
</linearGradient>
<linearGradient id="paint51_linear_855_47014" x1="321.535" y1="-10.5174" x2="362.536" y2="-9.74728" gradientUnits="userSpaceOnUse">
<stop stop-color="#3D3D3D" stop-opacity="0.8"/>
<stop offset="1" stop-color="#3D3D3D" stop-opacity="0"/>
</linearGradient>
<linearGradient id="paint52_linear_855_47014" x1="243.736" y1="-40.8744" x2="296.08" y2="-40.3596" gradientUnits="userSpaceOnUse">
<stop stop-color="#3D3D3D" stop-opacity="0.8"/>
<stop offset="1" stop-color="#3D3D3D" stop-opacity="0"/>
</linearGradient>
<linearGradient id="paint53_linear_855_47014" x1="411.638" y1="61.0314" x2="501.074" y2="64.7006" gradientUnits="userSpaceOnUse">
<stop stop-color="#3D3D3D" stop-opacity="0.8"/>
<stop offset="1" stop-color="#3D3D3D" stop-opacity="0"/>
</linearGradient>
<linearGradient id="paint54_linear_855_47014" x1="321.535" y1="-10.5174" x2="362.536" y2="-9.74728" gradientUnits="userSpaceOnUse">
<stop stop-color="#3D3D3D" stop-opacity="0.8"/>
<stop offset="1" stop-color="#3D3D3D" stop-opacity="0"/>
</linearGradient>
<linearGradient id="paint55_linear_855_47014" x1="339.064" y1="840.047" x2="335.1" y2="145.93" gradientUnits="userSpaceOnUse">
<stop stop-color="#1E1E1E"/>
<stop offset="1" stop-color="#1E1E1E" stop-opacity="0"/>
</linearGradient>
<clipPath id="clip0_855_47014">
<rect y="0.00195312" width="598" height="840" rx="40" fill="white"/>
</clipPath>
<clipPath id="clip1_855_47014">
<rect width="351" height="351" fill="white" transform="translate(123 173.002)"/>
</clipPath>
</defs>
</svg>
