<svg width="646" height="200" viewBox="0 0 646 200" fill="none" xmlns="http://www.w3.org/2000/svg">
<g clip-path="url(#clip0_855_90575)">
<path d="M56.0476 196.035L0 3.83398H45.8691L73.8929 115.929L83.9392 160.609H84.8645L94.6464 115.929L122.802 3.83398H168.672L112.624 196.035H56.0476Z" fill="#1E1E1E"/>
<path d="M282.133 196.035V3.83398H335.801L391.188 118.044L405.861 158.229H406.786L401.234 108.923V3.83398H442.08V196.035H388.015L332.893 81.8247L319.013 45.2087H317.691L322.979 102.314V196.035H282.133Z" fill="#1E1E1E"/>
<path d="M553.792 200C537.758 200 523.164 196.127 510.038 188.367C496.912 180.608 486.469 169.2 478.71 154.131C470.95 139.061 467.077 120.595 467.077 98.7442C467.077 76.8936 470.805 59.6563 478.247 44.9438C485.689 30.2313 495.934 19.0615 508.981 11.4342C522.028 3.80701 537.004 0 553.924 0C570.845 0 585.319 3.80701 598.406 11.4342C611.492 19.0615 621.843 30.2313 629.47 44.9438C637.097 59.6563 640.904 77.5942 640.904 98.7442C640.904 119.894 637.11 139.061 629.536 154.131C621.962 169.2 611.624 180.608 598.538 188.367C585.451 196.127 570.54 200 553.792 200ZM553.792 161.533C562.609 161.533 570.316 159.286 576.925 154.792C583.535 150.297 588.716 143.45 592.457 134.237C596.198 125.023 598.075 113.325 598.075 99.1408C598.075 85.7502 596.225 74.5539 592.523 65.5651C588.822 56.5763 583.64 49.8083 576.991 45.2743C570.329 40.7402 562.649 38.4666 553.924 38.4666C545.2 38.4666 538.168 40.7402 531.519 45.2743C524.87 49.8083 519.622 56.5763 515.788 65.5651C511.955 74.5539 510.038 85.7502 510.038 99.1408C510.038 109.808 511.135 119.061 513.343 126.9C515.55 134.739 518.63 141.216 522.596 146.332C526.562 151.447 531.215 155.254 536.542 157.766C541.869 160.278 547.619 161.533 553.792 161.533Z" fill="#1E1E1E"/>
<path d="M251.386 73.9102H247.103H227.288H220.256H214.836V143.732H224.869H244.618H257.136V73.9102H251.386Z" fill="#1E1E1E"/>
<path d="M247.591 193.245C250.697 191.394 253.063 188.869 254.676 185.684C256.289 182.498 257.095 178.889 257.095 174.858C257.095 170.826 256.289 167.085 254.676 163.912C253.063 160.74 250.697 158.255 247.591 156.444C244.484 154.633 240.69 153.721 236.209 153.721C231.728 153.721 227.683 154.659 224.497 156.55C221.312 158.44 218.893 160.978 217.254 164.164C215.614 167.349 214.795 170.905 214.795 174.818C214.795 178.731 215.614 182.524 217.254 185.71C218.893 188.896 221.312 191.407 224.497 193.245C227.683 195.095 231.583 196.008 236.209 196.008C240.836 196.008 244.471 195.082 247.591 193.218V193.245Z" fill="#DFFF00"/>
<path d="M178.654 16.5256L216.513 77.6228L231.529 73.6968L228.093 3.59766L178.654 16.5256Z" fill="#1E1E1E"/>
</g>
<defs>
<clipPath id="clip0_855_90575">
<rect width="645.472" height="200" fill="white"/>
</clipPath>
</defs>
</svg>
