<svg width="56" height="56" viewBox="0 0 56 56" fill="none" xmlns="http://www.w3.org/2000/svg">
<path d="M13.9026 18.3584C13.9596 18.1022 14.1868 17.9199 14.4493 17.9199L41.5589 17.9199C41.8177 17.9199 42.0428 18.0972 42.1034 18.3489L49.1137 47.4689C49.1985 47.8211 48.9316 48.1599 48.5693 48.1599L7.97819 48.1599C7.61993 48.1599 7.35381 47.8282 7.43153 47.4784L13.9026 18.3584Z" fill="#1E1E1E"/>
<path d="M26.4917 31.4439C26.5554 31.1964 26.7785 31.0234 27.0341 31.0234H30.0858C30.3413 31.0234 30.5644 31.1964 30.6281 31.4439L32.2999 37.9399C32.3911 38.2942 32.1235 38.6394 31.7576 38.6394H25.3623C24.9964 38.6394 24.7288 38.2942 24.82 37.9399L26.4917 31.4439Z" fill="#E8E8E8"/>
<path d="M31.5573 30.3515C31.5573 31.9597 30.2152 33.2635 28.5597 33.2635C26.9041 33.2635 25.562 31.9597 25.562 30.3515C25.562 28.7432 26.9041 27.4395 28.5597 27.4395C30.2152 27.4395 31.5573 28.7432 31.5573 30.3515Z" fill="#E8E8E8"/>
<path fill-rule="evenodd" clip-rule="evenodd" d="M16.8 7.2793L39.2 7.2793V22.3993H35.84V10.6393L20.16 10.6393L20.16 20.4793H16.8L16.8 7.2793Z" fill="#1E1E1E"/>
</svg>
